<?xml version="1.0" encoding="utf-8" standalone="no"?>
<!DOCTYPE svg PUBLIC "-//W3C//DTD SVG 1.1//EN"
  "http://www.w3.org/Graphics/SVG/1.1/DTD/svg11.dtd">
<!-- Created with matplotlib (http://matplotlib.org/) -->
<svg height="633.6pt" version="1.1" viewBox="0 0 921.6 633.6" width="921.6pt" xmlns="http://www.w3.org/2000/svg" xmlns:xlink="http://www.w3.org/1999/xlink">
 <defs>
  <style type="text/css">
*{stroke-linecap:butt;stroke-linejoin:round;}
  </style>
 </defs>
 <g id="figure_1">
  <g id="patch_1">
   <path d="M 0 633.6 
L 921.6 633.6 
L 921.6 0 
L 0 0 
z
" style="fill:#ffffff;"/>
  </g>
  <g id="axes_1">
   <g id="patch_2">
    <path d="M 115.2 554.4 
L 829.44 554.4 
L 829.44 76.032 
L 115.2 76.032 
z
" style="fill:#ffffff;"/>
   </g>
   <g id="matplotlib.axis_1">
    <g id="xtick_1">
     <g id="line2d_1"/>
     <g id="text_1">
      <!-- 1947 -->
      <defs>
       <path d="M 12.40625 8.296875 
L 28.515625 8.296875 
L 28.515625 63.921875 
L 10.984375 60.40625 
L 10.984375 69.390625 
L 28.421875 72.90625 
L 38.28125 72.90625 
L 38.28125 8.296875 
L 54.390625 8.296875 
L 54.390625 0 
L 12.40625 0 
z
" id="DejaVuSans-31"/>
       <path d="M 10.984375 1.515625 
L 10.984375 10.5 
Q 14.703125 8.734375 18.5 7.8125 
Q 22.3125 6.890625 25.984375 6.890625 
Q 35.75 6.890625 40.890625 13.453125 
Q 46.046875 20.015625 46.78125 33.40625 
Q 43.953125 29.203125 39.59375 26.953125 
Q 35.25 24.703125 29.984375 24.703125 
Q 19.046875 24.703125 12.671875 31.3125 
Q 6.296875 37.9375 6.296875 49.421875 
Q 6.296875 60.640625 12.9375 67.421875 
Q 19.578125 74.21875 30.609375 74.21875 
Q 43.265625 74.21875 49.921875 64.515625 
Q 56.59375 54.828125 56.59375 36.375 
Q 56.59375 19.140625 48.40625 8.859375 
Q 40.234375 -1.421875 26.421875 -1.421875 
Q 22.703125 -1.421875 18.890625 -0.6875 
Q 15.09375 0.046875 10.984375 1.515625 
z
M 30.609375 32.421875 
Q 37.25 32.421875 41.125 36.953125 
Q 45.015625 41.5 45.015625 49.421875 
Q 45.015625 57.28125 41.125 61.84375 
Q 37.25 66.40625 30.609375 66.40625 
Q 23.96875 66.40625 20.09375 61.84375 
Q 16.21875 57.28125 16.21875 49.421875 
Q 16.21875 41.5 20.09375 36.953125 
Q 23.96875 32.421875 30.609375 32.421875 
z
" id="DejaVuSans-39"/>
       <path d="M 37.796875 64.3125 
L 12.890625 25.390625 
L 37.796875 25.390625 
z
M 35.203125 72.90625 
L 47.609375 72.90625 
L 47.609375 25.390625 
L 58.015625 25.390625 
L 58.015625 17.1875 
L 47.609375 17.1875 
L 47.609375 0 
L 37.796875 0 
L 37.796875 17.1875 
L 4.890625 17.1875 
L 4.890625 26.703125 
z
" id="DejaVuSans-34"/>
       <path d="M 8.203125 72.90625 
L 55.078125 72.90625 
L 55.078125 68.703125 
L 28.609375 0 
L 18.3125 0 
L 43.21875 64.59375 
L 8.203125 64.59375 
z
" id="DejaVuSans-37"/>
      </defs>
      <g style="fill:#262626;" transform="translate(146.663081 577.7575)scale(0.16 -0.16)">
       <use xlink:href="#DejaVuSans-31"/>
       <use x="63.623047" xlink:href="#DejaVuSans-39"/>
       <use x="127.246094" xlink:href="#DejaVuSans-34"/>
       <use x="190.869141" xlink:href="#DejaVuSans-37"/>
      </g>
     </g>
    </g>
    <g id="xtick_2">
     <g id="line2d_2"/>
     <g id="text_2">
      <!-- 1957 -->
      <defs>
       <path d="M 10.796875 72.90625 
L 49.515625 72.90625 
L 49.515625 64.59375 
L 19.828125 64.59375 
L 19.828125 46.734375 
Q 21.96875 47.46875 24.109375 47.828125 
Q 26.265625 48.1875 28.421875 48.1875 
Q 40.625 48.1875 47.75 41.5 
Q 54.890625 34.8125 54.890625 23.390625 
Q 54.890625 11.625 47.5625 5.09375 
Q 40.234375 -1.421875 26.90625 -1.421875 
Q 22.3125 -1.421875 17.546875 -0.640625 
Q 12.796875 0.140625 7.71875 1.703125 
L 7.71875 11.625 
Q 12.109375 9.234375 16.796875 8.0625 
Q 21.484375 6.890625 26.703125 6.890625 
Q 35.15625 6.890625 40.078125 11.328125 
Q 45.015625 15.765625 45.015625 23.390625 
Q 45.015625 31 40.078125 35.4375 
Q 35.15625 39.890625 26.703125 39.890625 
Q 22.75 39.890625 18.8125 39.015625 
Q 14.890625 38.140625 10.796875 36.28125 
z
" id="DejaVuSans-35"/>
      </defs>
      <g style="fill:#262626;" transform="translate(275.467105 577.7575)scale(0.16 -0.16)">
       <use xlink:href="#DejaVuSans-31"/>
       <use x="63.623047" xlink:href="#DejaVuSans-39"/>
       <use x="127.246094" xlink:href="#DejaVuSans-35"/>
       <use x="190.869141" xlink:href="#DejaVuSans-37"/>
      </g>
     </g>
    </g>
    <g id="xtick_3">
     <g id="line2d_3"/>
     <g id="text_3">
      <!-- 1967 -->
      <defs>
       <path d="M 33.015625 40.375 
Q 26.375 40.375 22.484375 35.828125 
Q 18.609375 31.296875 18.609375 23.390625 
Q 18.609375 15.53125 22.484375 10.953125 
Q 26.375 6.390625 33.015625 6.390625 
Q 39.65625 6.390625 43.53125 10.953125 
Q 47.40625 15.53125 47.40625 23.390625 
Q 47.40625 31.296875 43.53125 35.828125 
Q 39.65625 40.375 33.015625 40.375 
z
M 52.59375 71.296875 
L 52.59375 62.3125 
Q 48.875 64.0625 45.09375 64.984375 
Q 41.3125 65.921875 37.59375 65.921875 
Q 27.828125 65.921875 22.671875 59.328125 
Q 17.53125 52.734375 16.796875 39.40625 
Q 19.671875 43.65625 24.015625 45.921875 
Q 28.375 48.1875 33.59375 48.1875 
Q 44.578125 48.1875 50.953125 41.515625 
Q 57.328125 34.859375 57.328125 23.390625 
Q 57.328125 12.15625 50.6875 5.359375 
Q 44.046875 -1.421875 33.015625 -1.421875 
Q 20.359375 -1.421875 13.671875 8.265625 
Q 6.984375 17.96875 6.984375 36.375 
Q 6.984375 53.65625 15.1875 63.9375 
Q 23.390625 74.21875 37.203125 74.21875 
Q 40.921875 74.21875 44.703125 73.484375 
Q 48.484375 72.75 52.59375 71.296875 
z
" id="DejaVuSans-36"/>
      </defs>
      <g style="fill:#262626;" transform="translate(404.23587 577.7575)scale(0.16 -0.16)">
       <use xlink:href="#DejaVuSans-31"/>
       <use x="63.623047" xlink:href="#DejaVuSans-39"/>
       <use x="127.246094" xlink:href="#DejaVuSans-36"/>
       <use x="190.869141" xlink:href="#DejaVuSans-37"/>
      </g>
     </g>
    </g>
    <g id="xtick_4">
     <g id="line2d_4"/>
     <g id="text_4">
      <!-- 1977 -->
      <g style="fill:#262626;" transform="translate(533.039894 577.7575)scale(0.16 -0.16)">
       <use xlink:href="#DejaVuSans-31"/>
       <use x="63.623047" xlink:href="#DejaVuSans-39"/>
       <use x="127.246094" xlink:href="#DejaVuSans-37"/>
       <use x="190.869141" xlink:href="#DejaVuSans-37"/>
      </g>
     </g>
    </g>
    <g id="xtick_5">
     <g id="line2d_5"/>
     <g id="text_5">
      <!-- 1987 -->
      <defs>
       <path d="M 31.78125 34.625 
Q 24.75 34.625 20.71875 30.859375 
Q 16.703125 27.09375 16.703125 20.515625 
Q 16.703125 13.921875 20.71875 10.15625 
Q 24.75 6.390625 31.78125 6.390625 
Q 38.8125 6.390625 42.859375 10.171875 
Q 46.921875 13.96875 46.921875 20.515625 
Q 46.921875 27.09375 42.890625 30.859375 
Q 38.875 34.625 31.78125 34.625 
z
M 21.921875 38.8125 
Q 15.578125 40.375 12.03125 44.71875 
Q 8.5 49.078125 8.5 55.328125 
Q 8.5 64.0625 14.71875 69.140625 
Q 20.953125 74.21875 31.78125 74.21875 
Q 42.671875 74.21875 48.875 69.140625 
Q 55.078125 64.0625 55.078125 55.328125 
Q 55.078125 49.078125 51.53125 44.71875 
Q 48 40.375 41.703125 38.8125 
Q 48.828125 37.15625 52.796875 32.3125 
Q 56.78125 27.484375 56.78125 20.515625 
Q 56.78125 9.90625 50.3125 4.234375 
Q 43.84375 -1.421875 31.78125 -1.421875 
Q 19.734375 -1.421875 13.25 4.234375 
Q 6.78125 9.90625 6.78125 20.515625 
Q 6.78125 27.484375 10.78125 32.3125 
Q 14.796875 37.15625 21.921875 38.8125 
z
M 18.3125 54.390625 
Q 18.3125 48.734375 21.84375 45.5625 
Q 25.390625 42.390625 31.78125 42.390625 
Q 38.140625 42.390625 41.71875 45.5625 
Q 45.3125 48.734375 45.3125 54.390625 
Q 45.3125 60.0625 41.71875 63.234375 
Q 38.140625 66.40625 31.78125 66.40625 
Q 25.390625 66.40625 21.84375 63.234375 
Q 18.3125 60.0625 18.3125 54.390625 
z
" id="DejaVuSans-38"/>
      </defs>
      <g style="fill:#262626;" transform="translate(661.808659 577.7575)scale(0.16 -0.16)">
       <use xlink:href="#DejaVuSans-31"/>
       <use x="63.623047" xlink:href="#DejaVuSans-39"/>
       <use x="127.246094" xlink:href="#DejaVuSans-38"/>
       <use x="190.869141" xlink:href="#DejaVuSans-37"/>
      </g>
     </g>
    </g>
    <g id="xtick_6">
     <g id="line2d_6"/>
     <g id="text_6">
      <!-- 1997 -->
      <g style="fill:#262626;" transform="translate(790.612683 577.7575)scale(0.16 -0.16)">
       <use xlink:href="#DejaVuSans-31"/>
       <use x="63.623047" xlink:href="#DejaVuSans-39"/>
       <use x="127.246094" xlink:href="#DejaVuSans-39"/>
       <use x="190.869141" xlink:href="#DejaVuSans-37"/>
      </g>
     </g>
    </g>
   </g>
   <g id="matplotlib.axis_2">
    <g id="ytick_1">
     <g id="line2d_7"/>
     <g id="text_7">
      <!-- 0 -->
      <defs>
       <path d="M 31.78125 66.40625 
Q 24.171875 66.40625 20.328125 58.90625 
Q 16.5 51.421875 16.5 36.375 
Q 16.5 21.390625 20.328125 13.890625 
Q 24.171875 6.390625 31.78125 6.390625 
Q 39.453125 6.390625 43.28125 13.890625 
Q 47.125 21.390625 47.125 36.375 
Q 47.125 51.421875 43.28125 58.90625 
Q 39.453125 66.40625 31.78125 66.40625 
z
M 31.78125 74.21875 
Q 44.046875 74.21875 50.515625 64.515625 
Q 56.984375 54.828125 56.984375 36.375 
Q 56.984375 17.96875 50.515625 8.265625 
Q 44.046875 -1.421875 31.78125 -1.421875 
Q 19.53125 -1.421875 13.0625 8.265625 
Q 6.59375 17.96875 6.59375 36.375 
Q 6.59375 54.828125 13.0625 64.515625 
Q 19.53125 74.21875 31.78125 74.21875 
z
" id="DejaVuSans-30"/>
      </defs>
      <g style="fill:#262626;" transform="translate(93.82 538.73475)scale(0.16 -0.16)">
       <use xlink:href="#DejaVuSans-30"/>
      </g>
     </g>
    </g>
    <g id="ytick_2">
     <g id="line2d_8"/>
     <g id="text_8">
      <!-- 5 -->
      <g style="fill:#262626;" transform="translate(93.82 485.39449)scale(0.16 -0.16)">
       <use xlink:href="#DejaVuSans-35"/>
      </g>
     </g>
    </g>
    <g id="ytick_3">
     <g id="line2d_9"/>
     <g id="text_9">
      <!-- 10 -->
      <g style="fill:#262626;" transform="translate(83.64 432.054231)scale(0.16 -0.16)">
       <use xlink:href="#DejaVuSans-31"/>
       <use x="63.623047" xlink:href="#DejaVuSans-30"/>
      </g>
     </g>
    </g>
    <g id="ytick_4">
     <g id="line2d_10"/>
     <g id="text_10">
      <!-- 15 -->
      <g style="fill:#262626;" transform="translate(83.64 378.713971)scale(0.16 -0.16)">
       <use xlink:href="#DejaVuSans-31"/>
       <use x="63.623047" xlink:href="#DejaVuSans-35"/>
      </g>
     </g>
    </g>
    <g id="ytick_5">
     <g id="line2d_11"/>
     <g id="text_11">
      <!-- 20 -->
      <defs>
       <path d="M 19.1875 8.296875 
L 53.609375 8.296875 
L 53.609375 0 
L 7.328125 0 
L 7.328125 8.296875 
Q 12.9375 14.109375 22.625 23.890625 
Q 32.328125 33.6875 34.8125 36.53125 
Q 39.546875 41.84375 41.421875 45.53125 
Q 43.3125 49.21875 43.3125 52.78125 
Q 43.3125 58.59375 39.234375 62.25 
Q 35.15625 65.921875 28.609375 65.921875 
Q 23.96875 65.921875 18.8125 64.3125 
Q 13.671875 62.703125 7.8125 59.421875 
L 7.8125 69.390625 
Q 13.765625 71.78125 18.9375 73 
Q 24.125 74.21875 28.421875 74.21875 
Q 39.75 74.21875 46.484375 68.546875 
Q 53.21875 62.890625 53.21875 53.421875 
Q 53.21875 48.921875 51.53125 44.890625 
Q 49.859375 40.875 45.40625 35.40625 
Q 44.1875 33.984375 37.640625 27.21875 
Q 31.109375 20.453125 19.1875 8.296875 
z
" id="DejaVuSans-32"/>
      </defs>
      <g style="fill:#262626;" transform="translate(83.64 325.373711)scale(0.16 -0.16)">
       <use xlink:href="#DejaVuSans-32"/>
       <use x="63.623047" xlink:href="#DejaVuSans-30"/>
      </g>
     </g>
    </g>
    <g id="ytick_6">
     <g id="line2d_12"/>
     <g id="text_12">
      <!-- 25 -->
      <g style="fill:#262626;" transform="translate(83.64 272.033451)scale(0.16 -0.16)">
       <use xlink:href="#DejaVuSans-32"/>
       <use x="63.623047" xlink:href="#DejaVuSans-35"/>
      </g>
     </g>
    </g>
    <g id="ytick_7">
     <g id="line2d_13"/>
     <g id="text_13">
      <!-- 30 -->
      <defs>
       <path d="M 40.578125 39.3125 
Q 47.65625 37.796875 51.625 33 
Q 55.609375 28.21875 55.609375 21.1875 
Q 55.609375 10.40625 48.1875 4.484375 
Q 40.765625 -1.421875 27.09375 -1.421875 
Q 22.515625 -1.421875 17.65625 -0.515625 
Q 12.796875 0.390625 7.625 2.203125 
L 7.625 11.71875 
Q 11.71875 9.328125 16.59375 8.109375 
Q 21.484375 6.890625 26.8125 6.890625 
Q 36.078125 6.890625 40.9375 10.546875 
Q 45.796875 14.203125 45.796875 21.1875 
Q 45.796875 27.640625 41.28125 31.265625 
Q 36.765625 34.90625 28.71875 34.90625 
L 20.21875 34.90625 
L 20.21875 43.015625 
L 29.109375 43.015625 
Q 36.375 43.015625 40.234375 45.921875 
Q 44.09375 48.828125 44.09375 54.296875 
Q 44.09375 59.90625 40.109375 62.90625 
Q 36.140625 65.921875 28.71875 65.921875 
Q 24.65625 65.921875 20.015625 65.03125 
Q 15.375 64.15625 9.8125 62.3125 
L 9.8125 71.09375 
Q 15.4375 72.65625 20.34375 73.4375 
Q 25.25 74.21875 29.59375 74.21875 
Q 40.828125 74.21875 47.359375 69.109375 
Q 53.90625 64.015625 53.90625 55.328125 
Q 53.90625 49.265625 50.4375 45.09375 
Q 46.96875 40.921875 40.578125 39.3125 
z
" id="DejaVuSans-33"/>
      </defs>
      <g style="fill:#262626;" transform="translate(83.64 218.693192)scale(0.16 -0.16)">
       <use xlink:href="#DejaVuSans-33"/>
       <use x="63.623047" xlink:href="#DejaVuSans-30"/>
      </g>
     </g>
    </g>
    <g id="ytick_8">
     <g id="line2d_14"/>
     <g id="text_14">
      <!-- 35 -->
      <g style="fill:#262626;" transform="translate(83.64 165.352932)scale(0.16 -0.16)">
       <use xlink:href="#DejaVuSans-33"/>
       <use x="63.623047" xlink:href="#DejaVuSans-35"/>
      </g>
     </g>
    </g>
    <g id="ytick_9">
     <g id="line2d_15"/>
     <g id="text_15">
      <!-- 40 -->
      <g style="fill:#262626;" transform="translate(83.64 112.012672)scale(0.16 -0.16)">
       <use xlink:href="#DejaVuSans-34"/>
       <use x="63.623047" xlink:href="#DejaVuSans-30"/>
      </g>
     </g>
    </g>
   </g>
   <g id="line2d_16">
    <path clip-path="url(#pca7e094068)" d="M 147.665455 457.101287 
L 162.721386 456.684756 
L 163.77918 456.268226 
L 172.34731 454.602102 
L 177.742058 454.185571 
L 178.799852 453.76904 
L 180.985959 453.352509 
L 186.310188 451.269854 
L 189.554089 450.853323 
L 193.891043 450.436793 
L 198.122219 448.770669 
L 200.273066 447.937607 
L 202.423913 447.521076 
L 209.898989 444.605359 
L 215.293738 444.188829 
L 217.444585 443.355767 
L 221.71102 442.939236 
L 230.31441 439.606988 
L 232.500517 439.190457 
L 237.824746 437.107803 
L 240.010853 436.691272 
L 263.564395 427.527591 
L 280.771174 420.863096 
L 302.209128 412.532478 
L 319.415907 405.867983 
L 327.948777 402.535735 
L 330.134884 402.119205 
L 347.341663 395.45471 
L 361.304541 390.039808 
L 365.535716 388.373684 
L 384.858083 380.876127 
L 399.949275 375.044694 
L 404.18045 373.37857 
L 423.502816 365.881014 
L 438.558748 360.049581 
L 444.97603 357.550395 
L 461.089756 351.302431 
L 464.333657 350.052838 
L 466.413985 349.636307 
L 485.736351 342.138751 
L 487.887199 341.72222 
L 502.97839 335.890787 
L 507.209565 334.224663 
L 526.531932 326.727106 
L 541.587864 320.895673 
L 542.610398 320.479142 
L 544.761245 320.062611 
L 558.724123 314.647709 
L 560.874971 314.231178 
L 576.988696 307.983214 
L 598.42665 299.652596 
L 615.633429 292.988101 
L 629.561048 287.573199 
L 634.885276 287.156668 
L 639.222231 285.490544 
L 641.373078 285.074013 
L 662.811033 276.743394 
L 680.017812 270.078899 
L 701.455766 261.748281 
L 711.116949 257.999502 
L 713.267797 257.582972 
L 726.137621 252.5846 
L 729.381522 252.168069 
L 750.819476 243.837451 
L 768.026255 237.172956 
L 791.579797 228.009275 
L 796.974545 225.926621 
L 796.974545 225.926621 
" style="fill:none;opacity:0.5;stroke:#0000ff;stroke-linecap:round;stroke-width:2.8;"/>
   </g>
   <g id="line2d_17">
    <defs>
     <path d="M 0 2.5 
C 0.663008 2.5 1.29895 2.236584 1.767767 1.767767 
C 2.236584 1.29895 2.5 0.663008 2.5 0 
C 2.5 -0.663008 2.236584 -1.29895 1.767767 -1.767767 
C 1.29895 -2.236584 0.663008 -2.5 0 -2.5 
C -0.663008 -2.5 -1.29895 -2.236584 -1.767767 -1.767767 
C -2.236584 -1.29895 -2.5 -0.663008 -2.5 0 
C -2.5 0.663008 -2.236584 1.29895 -1.767767 1.767767 
C -1.29895 2.236584 -0.663008 2.5 0 2.5 
z
" id="m5f139a7adc"/>
    </defs>
    <g clip-path="url(#pca7e094068)">
     <use x="147.665455" xlink:href="#m5f139a7adc" y="532.656"/>
     <use x="162.721386" xlink:href="#m5f139a7adc" y="447.311584"/>
     <use x="163.77918" xlink:href="#m5f139a7adc" y="436.643532"/>
     <use x="165.930027" xlink:href="#m5f139a7adc" y="479.31574"/>
     <use x="168.116135" xlink:href="#m5f139a7adc" y="436.643532"/>
     <use x="170.196462" xlink:href="#m5f139a7adc" y="479.31574"/>
     <use x="172.34731" xlink:href="#m5f139a7adc" y="429.531498"/>
     <use x="177.742058" xlink:href="#m5f139a7adc" y="393.971325"/>
     <use x="178.799852" xlink:href="#m5f139a7adc" y="443.755567"/>
     <use x="180.985959" xlink:href="#m5f139a7adc" y="479.31574"/>
     <use x="182.008493" xlink:href="#m5f139a7adc" y="397.527342"/>
     <use x="183.101547" xlink:href="#m5f139a7adc" y="433.087515"/>
     <use x="184.15934" xlink:href="#m5f139a7adc" y="443.755567"/>
     <use x="185.252394" xlink:href="#m5f139a7adc" y="393.971325"/>
     <use x="186.310188" xlink:href="#m5f139a7adc" y="461.535654"/>
     <use x="189.554089" xlink:href="#m5f139a7adc" y="521.987948"/>
     <use x="193.891043" xlink:href="#m5f139a7adc" y="479.31574"/>
     <use x="194.878318" xlink:href="#m5f139a7adc" y="500.651844"/>
     <use x="195.971371" xlink:href="#m5f139a7adc" y="495.317818"/>
     <use x="197.029165" xlink:href="#m5f139a7adc" y="479.31574"/>
     <use x="198.122219" xlink:href="#m5f139a7adc" y="447.311584"/>
     <use x="199.180012" xlink:href="#m5f139a7adc" y="361.967169"/>
     <use x="200.273066" xlink:href="#m5f139a7adc" y="532.656"/>
     <use x="202.423913" xlink:href="#m5f139a7adc" y="500.651844"/>
     <use x="203.516967" xlink:href="#m5f139a7adc" y="457.979636"/>
     <use x="204.574761" xlink:href="#m5f139a7adc" y="500.651844"/>
     <use x="205.667814" xlink:href="#m5f139a7adc" y="486.427775"/>
     <use x="206.760868" xlink:href="#m5f139a7adc" y="463.313662"/>
     <use x="207.748142" xlink:href="#m5f139a7adc" y="337.075048"/>
     <use x="208.841196" xlink:href="#m5f139a7adc" y="468.647688"/>
     <use x="209.898989" xlink:href="#m5f139a7adc" y="404.639377"/>
     <use x="215.293738" xlink:href="#m5f139a7adc" y="388.637299"/>
     <use x="216.386791" xlink:href="#m5f139a7adc" y="329.963013"/>
     <use x="217.444585" xlink:href="#m5f139a7adc" y="481.449351"/>
     <use x="221.71102" xlink:href="#m5f139a7adc" y="436.643532"/>
     <use x="222.768814" xlink:href="#m5f139a7adc" y="441.977558"/>
     <use x="223.861868" xlink:href="#m5f139a7adc" y="429.976"/>
     <use x="224.919661" xlink:href="#m5f139a7adc" y="484.649766"/>
     <use x="226.012715" xlink:href="#m5f139a7adc" y="479.31574"/>
     <use x="227.105769" xlink:href="#m5f139a7adc" y="479.31574"/>
     <use x="228.163562" xlink:href="#m5f139a7adc" y="433.087515"/>
     <use x="229.256616" xlink:href="#m5f139a7adc" y="379.747255"/>
     <use x="230.31441" xlink:href="#m5f139a7adc" y="369.968208"/>
     <use x="232.500517" xlink:href="#m5f139a7adc" y="367.301195"/>
     <use x="233.523051" xlink:href="#m5f139a7adc" y="433.087515"/>
     <use x="234.616104" xlink:href="#m5f139a7adc" y="404.639377"/>
     <use x="235.673898" xlink:href="#m5f139a7adc" y="475.315221"/>
     <use x="236.766952" xlink:href="#m5f139a7adc" y="436.643532"/>
     <use x="237.824746" xlink:href="#m5f139a7adc" y="484.649766"/>
     <use x="240.010853" xlink:href="#m5f139a7adc" y="472.203706"/>
     <use x="241.068647" xlink:href="#m5f139a7adc" y="415.307429"/>
     <use x="242.1617" xlink:href="#m5f139a7adc" y="463.313662"/>
     <use x="243.219494" xlink:href="#m5f139a7adc" y="408.906597"/>
     <use x="244.312548" xlink:href="#m5f139a7adc" y="457.979636"/>
     <use x="245.405601" xlink:href="#m5f139a7adc" y="344.187082"/>
     <use x="246.392875" xlink:href="#m5f139a7adc" y="323.562182"/>
     <use x="247.485929" xlink:href="#m5f139a7adc" y="421.70826"/>
     <use x="248.543723" xlink:href="#m5f139a7adc" y="417.974442"/>
     <use x="249.636776" xlink:href="#m5f139a7adc" y="443.044364"/>
     <use x="250.69457" xlink:href="#m5f139a7adc" y="459.503644"/>
     <use x="251.787624" xlink:href="#m5f139a7adc" y="511.319896"/>
     <use x="252.880677" xlink:href="#m5f139a7adc" y="463.313662"/>
     <use x="253.938471" xlink:href="#m5f139a7adc" y="445.533576"/>
     <use x="255.031525" xlink:href="#m5f139a7adc" y="475.048519"/>
     <use x="256.089318" xlink:href="#m5f139a7adc" y="466.86968"/>
     <use x="257.182372" xlink:href="#m5f139a7adc" y="465.980675"/>
     <use x="258.275426" xlink:href="#m5f139a7adc" y="351.299117"/>
     <use x="259.2627" xlink:href="#m5f139a7adc" y="428.109091"/>
     <use x="260.355753" xlink:href="#m5f139a7adc" y="447.311584"/>
     <use x="261.413547" xlink:href="#m5f139a7adc" y="461.980156"/>
     <use x="262.506601" xlink:href="#m5f139a7adc" y="473.981714"/>
     <use x="263.564395" xlink:href="#m5f139a7adc" y="443.044364"/>
     <use x="264.657448" xlink:href="#m5f139a7adc" y="479.31574"/>
     <use x="265.750502" xlink:href="#m5f139a7adc" y="441.977558"/>
     <use x="266.808296" xlink:href="#m5f139a7adc" y="413.173818"/>
     <use x="267.901349" xlink:href="#m5f139a7adc" y="399.305351"/>
     <use x="268.959143" xlink:href="#m5f139a7adc" y="390.92331"/>
     <use x="270.052197" xlink:href="#m5f139a7adc" y="273.066736"/>
     <use x="271.14525" xlink:href="#m5f139a7adc" y="411.040208"/>
     <use x="272.132524" xlink:href="#m5f139a7adc" y="351.299117"/>
     <use x="273.225578" xlink:href="#m5f139a7adc" y="335.78195"/>
     <use x="274.283372" xlink:href="#m5f139a7adc" y="406.772987"/>
     <use x="275.376425" xlink:href="#m5f139a7adc" y="416.948667"/>
     <use x="276.434219" xlink:href="#m5f139a7adc" y="328.439006"/>
     <use x="277.527273" xlink:href="#m5f139a7adc" y="457.979636"/>
     <use x="278.620326" xlink:href="#m5f139a7adc" y="404.639377"/>
     <use x="279.67812" xlink:href="#m5f139a7adc" y="353.238763"/>
     <use x="280.771174" xlink:href="#m5f139a7adc" y="424.035835"/>
     <use x="281.828967" xlink:href="#m5f139a7adc" y="394.941148"/>
     <use x="282.922021" xlink:href="#m5f139a7adc" y="440.19955"/>
     <use x="284.015075" xlink:href="#m5f139a7adc" y="420.156543"/>
     <use x="285.037609" xlink:href="#m5f139a7adc" y="419.574649"/>
     <use x="286.130662" xlink:href="#m5f139a7adc" y="378.454158"/>
     <use x="287.188456" xlink:href="#m5f139a7adc" y="398.364052"/>
     <use x="288.28151" xlink:href="#m5f139a7adc" y="398.712681"/>
     <use x="289.339303" xlink:href="#m5f139a7adc" y="401.083359"/>
     <use x="290.432357" xlink:href="#m5f139a7adc" y="425.975481"/>
     <use x="291.525411" xlink:href="#m5f139a7adc" y="428.109091"/>
     <use x="292.583204" xlink:href="#m5f139a7adc" y="416.640935"/>
     <use x="293.676258" xlink:href="#m5f139a7adc" y="396.816139"/>
     <use x="294.734052" xlink:href="#m5f139a7adc" y="432.833514"/>
     <use x="295.827105" xlink:href="#m5f139a7adc" y="436.643532"/>
     <use x="296.920159" xlink:href="#m5f139a7adc" y="435.576727"/>
     <use x="297.907433" xlink:href="#m5f139a7adc" y="416.831436"/>
     <use x="299.000487" xlink:href="#m5f139a7adc" y="335.297039"/>
     <use x="300.058281" xlink:href="#m5f139a7adc" y="381.363627"/>
     <use x="301.151334" xlink:href="#m5f139a7adc" y="373.702026"/>
     <use x="302.209128" xlink:href="#m5f139a7adc" y="441.215555"/>
     <use x="303.302182" xlink:href="#m5f139a7adc" y="379.747255"/>
     <use x="304.395235" xlink:href="#m5f139a7adc" y="404.639377"/>
     <use x="305.453029" xlink:href="#m5f139a7adc" y="463.313662"/>
     <use x="306.546082" xlink:href="#m5f139a7adc" y="428.642494"/>
     <use x="307.603876" xlink:href="#m5f139a7adc" y="467.677865"/>
     <use x="308.69693" xlink:href="#m5f139a7adc" y="444.644571"/>
     <use x="309.789983" xlink:href="#m5f139a7adc" y="401.438961"/>
     <use x="310.777258" xlink:href="#m5f139a7adc" y="389.526303"/>
     <use x="311.870311" xlink:href="#m5f139a7adc" y="397.17174"/>
     <use x="312.928105" xlink:href="#m5f139a7adc" y="372.635221"/>
     <use x="314.021159" xlink:href="#m5f139a7adc" y="392.193316"/>
     <use x="315.078952" xlink:href="#m5f139a7adc" y="430.242701"/>
     <use x="316.172006" xlink:href="#m5f139a7adc" y="376.191238"/>
     <use x="317.26506" xlink:href="#m5f139a7adc" y="402.268698"/>
     <use x="318.322853" xlink:href="#m5f139a7adc" y="404.639377"/>
     <use x="319.415907" xlink:href="#m5f139a7adc" y="412.93675"/>
     <use x="320.473701" xlink:href="#m5f139a7adc" y="417.441039"/>
     <use x="321.566754" xlink:href="#m5f139a7adc" y="433.087515"/>
     <use x="322.659808" xlink:href="#m5f139a7adc" y="429.175896"/>
     <use x="323.647082" xlink:href="#m5f139a7adc" y="442.739562"/>
     <use x="324.740136" xlink:href="#m5f139a7adc" y="440.746629"/>
     <use x="325.79793" xlink:href="#m5f139a7adc" y="456.201628"/>
     <use x="326.890983" xlink:href="#m5f139a7adc" y="440.453551"/>
     <use x="327.948777" xlink:href="#m5f139a7adc" y="408.639896"/>
     <use x="330.134884" xlink:href="#m5f139a7adc" y="453.130522"/>
     <use x="331.192678" xlink:href="#m5f139a7adc" y="433.087515"/>
     <use x="332.285731" xlink:href="#m5f139a7adc" y="422.927466"/>
     <use x="333.343525" xlink:href="#m5f139a7adc" y="392.637818"/>
     <use x="334.436579" xlink:href="#m5f139a7adc" y="439.92601"/>
     <use x="335.529632" xlink:href="#m5f139a7adc" y="419.574649"/>
     <use x="336.552166" xlink:href="#m5f139a7adc" y="384.488612"/>
     <use x="337.64522" xlink:href="#m5f139a7adc" y="385.673951"/>
     <use x="338.703014" xlink:href="#m5f139a7adc" y="391.304312"/>
     <use x="339.796067" xlink:href="#m5f139a7adc" y="402.861368"/>
     <use x="340.853861" xlink:href="#m5f139a7adc" y="427.616719"/>
     <use x="341.946915" xlink:href="#m5f139a7adc" y="471.695703"/>
     <use x="343.039968" xlink:href="#m5f139a7adc" y="415.974182"/>
     <use x="344.097762" xlink:href="#m5f139a7adc" y="410.862407"/>
     <use x="345.190816" xlink:href="#m5f139a7adc" y="357.699948"/>
     <use x="346.24861" xlink:href="#m5f139a7adc" y="405.30613"/>
     <use x="347.341663" xlink:href="#m5f139a7adc" y="393.08232"/>
     <use x="348.434717" xlink:href="#m5f139a7adc" y="411.204332"/>
     <use x="349.421991" xlink:href="#m5f139a7adc" y="406.417385"/>
     <use x="350.515045" xlink:href="#m5f139a7adc" y="431.028768"/>
     <use x="351.572838" xlink:href="#m5f139a7adc" y="406.417385"/>
     <use x="352.665892" xlink:href="#m5f139a7adc" y="414.486809"/>
     <use x="353.723686" xlink:href="#m5f139a7adc" y="379.423981"/>
     <use x="354.816739" xlink:href="#m5f139a7adc" y="391.837714"/>
     <use x="355.909793" xlink:href="#m5f139a7adc" y="413.021417"/>
     <use x="356.967587" xlink:href="#m5f139a7adc" y="414.486809"/>
     <use x="358.06064" xlink:href="#m5f139a7adc" y="417.441039"/>
     <use x="359.118434" xlink:href="#m5f139a7adc" y="427.97574"/>
     <use x="360.211488" xlink:href="#m5f139a7adc" y="388.152387"/>
     <use x="361.304541" xlink:href="#m5f139a7adc" y="384.944511"/>
     <use x="362.291815" xlink:href="#m5f139a7adc" y="389.229968"/>
     <use x="363.384869" xlink:href="#m5f139a7adc" y="388.323532"/>
     <use x="364.442663" xlink:href="#m5f139a7adc" y="402.505766"/>
     <use x="365.535716" xlink:href="#m5f139a7adc" y="383.303273"/>
     <use x="366.59351" xlink:href="#m5f139a7adc" y="398.712681"/>
     <use x="367.686564" xlink:href="#m5f139a7adc" y="428.642494"/>
     <use x="368.779617" xlink:href="#m5f139a7adc" y="338.169207"/>
     <use x="369.837411" xlink:href="#m5f139a7adc" y="424.908675"/>
     <use x="370.930465" xlink:href="#m5f139a7adc" y="422.837818"/>
     <use x="371.988259" xlink:href="#m5f139a7adc" y="440.19955"/>
     <use x="373.081312" xlink:href="#m5f139a7adc" y="384.192277"/>
     <use x="374.174366" xlink:href="#m5f139a7adc" y="389.704104"/>
     <use x="375.16164" xlink:href="#m5f139a7adc" y="388.637299"/>
     <use x="376.254694" xlink:href="#m5f139a7adc" y="378.73125"/>
     <use x="377.312487" xlink:href="#m5f139a7adc" y="344.898286"/>
     <use x="378.405541" xlink:href="#m5f139a7adc" y="370.264543"/>
     <use x="379.463335" xlink:href="#m5f139a7adc" y="375.544689"/>
     <use x="380.556388" xlink:href="#m5f139a7adc" y="429.531498"/>
     <use x="381.649442" xlink:href="#m5f139a7adc" y="374.089955"/>
     <use x="382.707236" xlink:href="#m5f139a7adc" y="336.751773"/>
     <use x="383.800289" xlink:href="#m5f139a7adc" y="382.592069"/>
     <use x="384.858083" xlink:href="#m5f139a7adc" y="396.638338"/>
     <use x="385.951137" xlink:href="#m5f139a7adc" y="383.303273"/>
     <use x="387.04419" xlink:href="#m5f139a7adc" y="384.636779"/>
     <use x="388.066724" xlink:href="#m5f139a7adc" y="315.561143"/>
     <use x="389.159778" xlink:href="#m5f139a7adc" y="330.496416"/>
     <use x="390.217572" xlink:href="#m5f139a7adc" y="356.633143"/>
     <use x="391.310625" xlink:href="#m5f139a7adc" y="324.628987"/>
     <use x="392.368419" xlink:href="#m5f139a7adc" y="438.52613"/>
     <use x="393.461473" xlink:href="#m5f139a7adc" y="352.632623"/>
     <use x="394.554526" xlink:href="#m5f139a7adc" y="311.960675"/>
     <use x="395.61232" xlink:href="#m5f139a7adc" y="379.747255"/>
     <use x="396.705374" xlink:href="#m5f139a7adc" y="402.699731"/>
     <use x="397.763167" xlink:href="#m5f139a7adc" y="391.837714"/>
     <use x="398.856221" xlink:href="#m5f139a7adc" y="433.087515"/>
     <use x="399.949275" xlink:href="#m5f139a7adc" y="388.8913"/>
     <use x="400.936549" xlink:href="#m5f139a7adc" y="372.101818"/>
     <use x="402.029602" xlink:href="#m5f139a7adc" y="336.363844"/>
     <use x="403.087396" xlink:href="#m5f139a7adc" y="347.988342"/>
     <use x="404.18045" xlink:href="#m5f139a7adc" y="317.355315"/>
     <use x="405.238244" xlink:href="#m5f139a7adc" y="198.898375"/>
     <use x="406.331297" xlink:href="#m5f139a7adc" y="367.301195"/>
     <use x="407.424351" xlink:href="#m5f139a7adc" y="286.167852"/>
     <use x="408.482144" xlink:href="#m5f139a7adc" y="307.250386"/>
     <use x="409.575198" xlink:href="#m5f139a7adc" y="324.374986"/>
     <use x="410.632992" xlink:href="#m5f139a7adc" y="399.305351"/>
     <use x="411.726045" xlink:href="#m5f139a7adc" y="279.905231"/>
     <use x="412.819099" xlink:href="#m5f139a7adc" y="355.96639"/>
     <use x="413.806373" xlink:href="#m5f139a7adc" y="354.052163"/>
     <use x="414.899427" xlink:href="#m5f139a7adc" y="377.797181"/>
     <use x="415.957221" xlink:href="#m5f139a7adc" y="388.423938"/>
     <use x="417.050274" xlink:href="#m5f139a7adc" y="392.286895"/>
     <use x="418.108068" xlink:href="#m5f139a7adc" y="389.970805"/>
     <use x="419.201122" xlink:href="#m5f139a7adc" y="369.079203"/>
     <use x="420.294175" xlink:href="#m5f139a7adc" y="314.722939"/>
     <use x="421.351969" xlink:href="#m5f139a7adc" y="367.301195"/>
     <use x="422.445023" xlink:href="#m5f139a7adc" y="351.987378"/>
     <use x="423.502816" xlink:href="#m5f139a7adc" y="395.826638"/>
     <use x="424.59587" xlink:href="#m5f139a7adc" y="347.620478"/>
     <use x="425.688924" xlink:href="#m5f139a7adc" y="353.37346"/>
     <use x="426.676198" xlink:href="#m5f139a7adc" y="346.149023"/>
     <use x="427.769251" xlink:href="#m5f139a7adc" y="351.666981"/>
     <use x="428.827045" xlink:href="#m5f139a7adc" y="331.066605"/>
     <use x="429.920099" xlink:href="#m5f139a7adc" y="328.540606"/>
     <use x="430.977893" xlink:href="#m5f139a7adc" y="289.957818"/>
     <use x="432.070946" xlink:href="#m5f139a7adc" y="310.760519"/>
     <use x="433.164" xlink:href="#m5f139a7adc" y="354.171285"/>
     <use x="434.221793" xlink:href="#m5f139a7adc" y="361.967169"/>
     <use x="435.314847" xlink:href="#m5f139a7adc" y="370.720442"/>
     <use x="436.372641" xlink:href="#m5f139a7adc" y="386.246184"/>
     <use x="437.465694" xlink:href="#m5f139a7adc" y="334.763636"/>
     <use x="438.558748" xlink:href="#m5f139a7adc" y="384.123892"/>
     <use x="439.581282" xlink:href="#m5f139a7adc" y="377.10892"/>
     <use x="440.674336" xlink:href="#m5f139a7adc" y="375.480035"/>
     <use x="441.732129" xlink:href="#m5f139a7adc" y="387.113291"/>
     <use x="442.825183" xlink:href="#m5f139a7adc" y="374.413229"/>
     <use x="443.882977" xlink:href="#m5f139a7adc" y="345.076087"/>
     <use x="444.97603" xlink:href="#m5f139a7adc" y="329.074009"/>
     <use x="446.069084" xlink:href="#m5f139a7adc" y="339.488059"/>
     <use x="447.126878" xlink:href="#m5f139a7adc" y="327.501155"/>
     <use x="448.219931" xlink:href="#m5f139a7adc" y="343.001743"/>
     <use x="449.277725" xlink:href="#m5f139a7adc" y="338.630805"/>
     <use x="450.370779" xlink:href="#m5f139a7adc" y="374.921232"/>
     <use x="451.463832" xlink:href="#m5f139a7adc" y="345.767534"/>
     <use x="452.451107" xlink:href="#m5f139a7adc" y="320.222618"/>
     <use x="453.54416" xlink:href="#m5f139a7adc" y="371.770244"/>
     <use x="454.601954" xlink:href="#m5f139a7adc" y="344.471564"/>
     <use x="455.695008" xlink:href="#m5f139a7adc" y="365.015184"/>
     <use x="456.752801" xlink:href="#m5f139a7adc" y="299.736866"/>
     <use x="457.845855" xlink:href="#m5f139a7adc" y="390.415307"/>
     <use x="458.938908" xlink:href="#m5f139a7adc" y="347.88534"/>
     <use x="459.996702" xlink:href="#m5f139a7adc" y="327.829403"/>
     <use x="461.089756" xlink:href="#m5f139a7adc" y="350.765714"/>
     <use x="462.14755" xlink:href="#m5f139a7adc" y="415.307429"/>
     <use x="463.240603" xlink:href="#m5f139a7adc" y="353.669795"/>
     <use x="464.333657" xlink:href="#m5f139a7adc" y="365.523186"/>
     <use x="466.413985" xlink:href="#m5f139a7adc" y="335.848835"/>
     <use x="467.471778" xlink:href="#m5f139a7adc" y="357.328885"/>
     <use x="468.564832" xlink:href="#m5f139a7adc" y="394.941148"/>
     <use x="469.622626" xlink:href="#m5f139a7adc" y="358.411152"/>
     <use x="470.715679" xlink:href="#m5f139a7adc" y="289.230451"/>
     <use x="471.808733" xlink:href="#m5f139a7adc" y="384.303403"/>
     <use x="472.866527" xlink:href="#m5f139a7adc" y="345.69839"/>
     <use x="473.95958" xlink:href="#m5f139a7adc" y="377.207243"/>
     <use x="475.017374" xlink:href="#m5f139a7adc" y="412.767416"/>
     <use x="476.110428" xlink:href="#m5f139a7adc" y="348.928439"/>
     <use x="477.203481" xlink:href="#m5f139a7adc" y="398.445024"/>
     <use x="478.190756" xlink:href="#m5f139a7adc" y="372.635221"/>
     <use x="479.283809" xlink:href="#m5f139a7adc" y="358.684691"/>
     <use x="480.341603" xlink:href="#m5f139a7adc" y="388.869213"/>
     <use x="481.434657" xlink:href="#m5f139a7adc" y="387.941556"/>
     <use x="482.49245" xlink:href="#m5f139a7adc" y="354.855134"/>
     <use x="483.585504" xlink:href="#m5f139a7adc" y="393.971325"/>
     <use x="484.678558" xlink:href="#m5f139a7adc" y="399.586089"/>
     <use x="485.736351" xlink:href="#m5f139a7adc" y="400.455827"/>
     <use x="487.887199" xlink:href="#m5f139a7adc" y="405.083879"/>
     <use x="488.980252" xlink:href="#m5f139a7adc" y="383.303273"/>
     <use x="490.073306" xlink:href="#m5f139a7adc" y="342.409074"/>
     <use x="491.09584" xlink:href="#m5f139a7adc" y="370.428038"/>
     <use x="492.188893" xlink:href="#m5f139a7adc" y="348.965481"/>
     <use x="493.246687" xlink:href="#m5f139a7adc" y="342.155072"/>
     <use x="494.339741" xlink:href="#m5f139a7adc" y="262.144683"/>
     <use x="495.397535" xlink:href="#m5f139a7adc" y="340.631065"/>
     <use x="496.490588" xlink:href="#m5f139a7adc" y="337.297299"/>
     <use x="497.583642" xlink:href="#m5f139a7adc" y="287.290805"/>
     <use x="498.641436" xlink:href="#m5f139a7adc" y="314.316537"/>
     <use x="499.734489" xlink:href="#m5f139a7adc" y="344.5614"/>
     <use x="500.792283" xlink:href="#m5f139a7adc" y="393.971325"/>
     <use x="501.885337" xlink:href="#m5f139a7adc" y="312.506201"/>
     <use x="502.97839" xlink:href="#m5f139a7adc" y="286.880496"/>
     <use x="503.965664" xlink:href="#m5f139a7adc" y="285.836071"/>
     <use x="505.058718" xlink:href="#m5f139a7adc" y="344.995268"/>
     <use x="506.116512" xlink:href="#m5f139a7adc" y="343.791969"/>
     <use x="507.209565" xlink:href="#m5f139a7adc" y="414.640675"/>
     <use x="508.267359" xlink:href="#m5f139a7adc" y="315.738944"/>
     <use x="509.360413" xlink:href="#m5f139a7adc" y="412.107013"/>
     <use x="510.453466" xlink:href="#m5f139a7adc" y="346.498494"/>
     <use x="511.51126" xlink:href="#m5f139a7adc" y="303.038882"/>
     <use x="512.604314" xlink:href="#m5f139a7adc" y="366.115856"/>
     <use x="513.662107" xlink:href="#m5f139a7adc" y="333.51903"/>
     <use x="514.755161" xlink:href="#m5f139a7adc" y="392.71626"/>
     <use x="515.848215" xlink:href="#m5f139a7adc" y="374.881126"/>
     <use x="516.835489" xlink:href="#m5f139a7adc" y="357.475357"/>
     <use x="517.928542" xlink:href="#m5f139a7adc" y="358.233351"/>
     <use x="518.986336" xlink:href="#m5f139a7adc" y="323.739983"/>
     <use x="520.07939" xlink:href="#m5f139a7adc" y="318.667429"/>
     <use x="521.137184" xlink:href="#m5f139a7adc" y="389.704104"/>
     <use x="522.230237" xlink:href="#m5f139a7adc" y="353.585128"/>
     <use x="523.323291" xlink:href="#m5f139a7adc" y="333.696831"/>
     <use x="524.381085" xlink:href="#m5f139a7adc" y="407.548845"/>
     <use x="525.474138" xlink:href="#m5f139a7adc" y="354.208586"/>
     <use x="526.531932" xlink:href="#m5f139a7adc" y="372.635221"/>
     <use x="527.624986" xlink:href="#m5f139a7adc" y="358.15715"/>
     <use x="528.718039" xlink:href="#m5f139a7adc" y="306.493299"/>
     <use x="529.705313" xlink:href="#m5f139a7adc" y="332.630026"/>
     <use x="530.798367" xlink:href="#m5f139a7adc" y="351.299117"/>
     <use x="531.856161" xlink:href="#m5f139a7adc" y="352.579283"/>
     <use x="532.949214" xlink:href="#m5f139a7adc" y="328.84006"/>
     <use x="534.007008" xlink:href="#m5f139a7adc" y="416.374234"/>
     <use x="535.100062" xlink:href="#m5f139a7adc" y="333.51903"/>
     <use x="536.193115" xlink:href="#m5f139a7adc" y="301.768876"/>
     <use x="537.250909" xlink:href="#m5f139a7adc" y="269.7952"/>
     <use x="538.343963" xlink:href="#m5f139a7adc" y="309.160312"/>
     <use x="539.401756" xlink:href="#m5f139a7adc" y="360.32593"/>
     <use x="540.49481" xlink:href="#m5f139a7adc" y="337.430649"/>
     <use x="541.587864" xlink:href="#m5f139a7adc" y="348.632104"/>
     <use x="542.610398" xlink:href="#m5f139a7adc" y="345.122876"/>
     <use x="544.761245" xlink:href="#m5f139a7adc" y="361.039512"/>
     <use x="545.854299" xlink:href="#m5f139a7adc" y="345.076087"/>
     <use x="546.912092" xlink:href="#m5f139a7adc" y="375.835636"/>
     <use x="548.005146" xlink:href="#m5f139a7adc" y="346.727095"/>
     <use x="549.0982" xlink:href="#m5f139a7adc" y="320.222618"/>
     <use x="550.155993" xlink:href="#m5f139a7adc" y="359.143273"/>
     <use x="551.249047" xlink:href="#m5f139a7adc" y="379.372938"/>
     <use x="552.306841" xlink:href="#m5f139a7adc" y="380.393804"/>
     <use x="553.399894" xlink:href="#m5f139a7adc" y="343.141195"/>
     <use x="554.492948" xlink:href="#m5f139a7adc" y="380.76326"/>
     <use x="555.480222" xlink:href="#m5f139a7adc" y="356.913881"/>
     <use x="556.573276" xlink:href="#m5f139a7adc" y="357.818482"/>
     <use x="557.63107" xlink:href="#m5f139a7adc" y="372.635221"/>
     <use x="558.724123" xlink:href="#m5f139a7adc" y="343.438447"/>
     <use x="560.874971" xlink:href="#m5f139a7adc" y="280.178771"/>
     <use x="561.968024" xlink:href="#m5f139a7adc" y="321.19997"/>
     <use x="563.025818" xlink:href="#m5f139a7adc" y="305.426494"/>
     <use x="564.118871" xlink:href="#m5f139a7adc" y="347.489098"/>
     <use x="565.176665" xlink:href="#m5f139a7adc" y="364.337847"/>
     <use x="566.269719" xlink:href="#m5f139a7adc" y="288.218462"/>
     <use x="567.362772" xlink:href="#m5f139a7adc" y="357.077645"/>
     <use x="568.350047" xlink:href="#m5f139a7adc" y="293.894837"/>
     <use x="569.4431" xlink:href="#m5f139a7adc" y="287.775717"/>
     <use x="570.500894" xlink:href="#m5f139a7adc" y="378.426449"/>
     <use x="571.593948" xlink:href="#m5f139a7adc" y="207.280416"/>
     <use x="572.651741" xlink:href="#m5f139a7adc" y="431.309506"/>
     <use x="573.744795" xlink:href="#m5f139a7adc" y="334.535035"/>
     <use x="574.837849" xlink:href="#m5f139a7adc" y="324.882988"/>
     <use x="575.895642" xlink:href="#m5f139a7adc" y="335.297039"/>
     <use x="576.988696" xlink:href="#m5f139a7adc" y="385.142592"/>
     <use x="578.04649" xlink:href="#m5f139a7adc" y="330.555683"/>
     <use x="579.139543" xlink:href="#m5f139a7adc" y="286.579602"/>
     <use x="580.232597" xlink:href="#m5f139a7adc" y="302.979117"/>
     <use x="581.219871" xlink:href="#m5f139a7adc" y="262.754286"/>
     <use x="582.312925" xlink:href="#m5f139a7adc" y="308.923244"/>
     <use x="583.370719" xlink:href="#m5f139a7adc" y="337.807169"/>
     <use x="584.463772" xlink:href="#m5f139a7adc" y="352.226774"/>
     <use x="585.521566" xlink:href="#m5f139a7adc" y="310.404918"/>
     <use x="586.61462" xlink:href="#m5f139a7adc" y="323.174253"/>
     <use x="587.707673" xlink:href="#m5f139a7adc" y="277.853682"/>
     <use x="588.765467" xlink:href="#m5f139a7adc" y="296.703792"/>
     <use x="589.85852" xlink:href="#m5f139a7adc" y="337.384267"/>
     <use x="590.916314" xlink:href="#m5f139a7adc" y="303.777795"/>
     <use x="592.009368" xlink:href="#m5f139a7adc" y="270.696058"/>
     <use x="593.102421" xlink:href="#m5f139a7adc" y="301.353237"/>
     <use x="594.124955" xlink:href="#m5f139a7adc" y="296.864698"/>
     <use x="595.218009" xlink:href="#m5f139a7adc" y="327.829403"/>
     <use x="596.275803" xlink:href="#m5f139a7adc" y="300.092468"/>
     <use x="597.368856" xlink:href="#m5f139a7adc" y="364.477299"/>
     <use x="598.42665" xlink:href="#m5f139a7adc" y="276.622753"/>
     <use x="599.519704" xlink:href="#m5f139a7adc" y="296.180848"/>
     <use x="600.612757" xlink:href="#m5f139a7adc" y="262.07541"/>
     <use x="601.670551" xlink:href="#m5f139a7adc" y="286.729329"/>
     <use x="602.763605" xlink:href="#m5f139a7adc" y="305.71744"/>
     <use x="603.821399" xlink:href="#m5f139a7adc" y="317.294701"/>
     <use x="604.914452" xlink:href="#m5f139a7adc" y="307.915706"/>
     <use x="606.007506" xlink:href="#m5f139a7adc" y="301.327716"/>
     <use x="606.99478" xlink:href="#m5f139a7adc" y="238.296789"/>
     <use x="608.087834" xlink:href="#m5f139a7adc" y="310.268148"/>
     <use x="609.145627" xlink:href="#m5f139a7adc" y="240.92581"/>
     <use x="610.238681" xlink:href="#m5f139a7adc" y="281.290026"/>
     <use x="611.296475" xlink:href="#m5f139a7adc" y="229.683325"/>
     <use x="612.389528" xlink:href="#m5f139a7adc" y="329.963013"/>
     <use x="613.482582" xlink:href="#m5f139a7adc" y="262.560321"/>
     <use x="614.540376" xlink:href="#m5f139a7adc" y="242.586588"/>
     <use x="615.633429" xlink:href="#m5f139a7adc" y="225.949506"/>
     <use x="616.691223" xlink:href="#m5f139a7adc" y="343.831481"/>
     <use x="617.784277" xlink:href="#m5f139a7adc" y="255.286649"/>
     <use x="618.87733" xlink:href="#m5f139a7adc" y="226.838511"/>
     <use x="619.864604" xlink:href="#m5f139a7adc" y="255.286649"/>
     <use x="620.957658" xlink:href="#m5f139a7adc" y="197.899887"/>
     <use x="622.015452" xlink:href="#m5f139a7adc" y="280.387948"/>
     <use x="623.108505" xlink:href="#m5f139a7adc" y="247.28561"/>
     <use x="624.166299" xlink:href="#m5f139a7adc" y="210.836433"/>
     <use x="625.259353" xlink:href="#m5f139a7adc" y="265.954701"/>
     <use x="626.352406" xlink:href="#m5f139a7adc" y="226.593268"/>
     <use x="627.4102" xlink:href="#m5f139a7adc" y="243.387668"/>
     <use x="628.503254" xlink:href="#m5f139a7adc" y="265.287948"/>
     <use x="629.561048" xlink:href="#m5f139a7adc" y="291.393902"/>
     <use x="634.885276" xlink:href="#m5f139a7adc" y="213.175918"/>
     <use x="635.97833" xlink:href="#m5f139a7adc" y="311.674924"/>
     <use x="637.036124" xlink:href="#m5f139a7adc" y="319.294961"/>
     <use x="638.129177" xlink:href="#m5f139a7adc" y="334.535035"/>
     <use x="639.222231" xlink:href="#m5f139a7adc" y="305.529733"/>
     <use x="641.373078" xlink:href="#m5f139a7adc" y="321.961974"/>
     <use x="642.430872" xlink:href="#m5f139a7adc" y="247.28561"/>
     <use x="643.523926" xlink:href="#m5f139a7adc" y="312.319696"/>
     <use x="644.616979" xlink:href="#m5f139a7adc" y="312.538528"/>
     <use x="645.639513" xlink:href="#m5f139a7adc" y="316.627948"/>
     <use x="646.732567" xlink:href="#m5f139a7adc" y="311.201956"/>
     <use x="647.790361" xlink:href="#m5f139a7adc" y="220.707446"/>
     <use x="648.883414" xlink:href="#m5f139a7adc" y="296.678691"/>
     <use x="649.941208" xlink:href="#m5f139a7adc" y="259.858672"/>
     <use x="651.034262" xlink:href="#m5f139a7adc" y="321.756819"/>
     <use x="652.127315" xlink:href="#m5f139a7adc" y="225.792623"/>
     <use x="653.185109" xlink:href="#m5f139a7adc" y="280.27235"/>
     <use x="654.278163" xlink:href="#m5f139a7adc" y="290.233716"/>
     <use x="655.335956" xlink:href="#m5f139a7adc" y="313.140316"/>
     <use x="656.42901" xlink:href="#m5f139a7adc" y="235.054137"/>
     <use x="657.522064" xlink:href="#m5f139a7adc" y="254.998324"/>
     <use x="658.509338" xlink:href="#m5f139a7adc" y="266.665905"/>
     <use x="659.602391" xlink:href="#m5f139a7adc" y="276.978355"/>
     <use x="660.660185" xlink:href="#m5f139a7adc" y="313.824165"/>
     <use x="661.753239" xlink:href="#m5f139a7adc" y="268.464831"/>
     <use x="662.811033" xlink:href="#m5f139a7adc" y="113.045957"/>
     <use x="663.904086" xlink:href="#m5f139a7adc" y="221.342848"/>
     <use x="664.99714" xlink:href="#m5f139a7adc" y="261.213345"/>
     <use x="666.054933" xlink:href="#m5f139a7adc" y="286.922941"/>
     <use x="667.147987" xlink:href="#m5f139a7adc" y="278.400762"/>
     <use x="668.205781" xlink:href="#m5f139a7adc" y="286.967531"/>
     <use x="669.298834" xlink:href="#m5f139a7adc" y="323.005588"/>
     <use x="670.391888" xlink:href="#m5f139a7adc" y="308.384453"/>
     <use x="671.379162" xlink:href="#m5f139a7adc" y="245.265146"/>
     <use x="672.472216" xlink:href="#m5f139a7adc" y="293.996438"/>
     <use x="673.53001" xlink:href="#m5f139a7adc" y="306.545338"/>
     <use x="674.623063" xlink:href="#m5f139a7adc" y="274.082741"/>
     <use x="675.680857" xlink:href="#m5f139a7adc" y="351.299117"/>
     <use x="676.773911" xlink:href="#m5f139a7adc" y="344.39626"/>
     <use x="677.866964" xlink:href="#m5f139a7adc" y="271.955481"/>
     <use x="678.924758" xlink:href="#m5f139a7adc" y="313.960935"/>
     <use x="680.017812" xlink:href="#m5f139a7adc" y="253.508641"/>
     <use x="681.075605" xlink:href="#m5f139a7adc" y="224.044497"/>
     <use x="682.168659" xlink:href="#m5f139a7adc" y="341.277614"/>
     <use x="683.261713" xlink:href="#m5f139a7adc" y="271.091171"/>
     <use x="684.248987" xlink:href="#m5f139a7adc" y="271.116662"/>
     <use x="685.34204" xlink:href="#m5f139a7adc" y="211.947688"/>
     <use x="686.399834" xlink:href="#m5f139a7adc" y="161.156779"/>
     <use x="687.492888" xlink:href="#m5f139a7adc" y="257.748507"/>
     <use x="688.550682" xlink:href="#m5f139a7adc" y="225.060502"/>
     <use x="689.643735" xlink:href="#m5f139a7adc" y="221.948987"/>
     <use x="690.736789" xlink:href="#m5f139a7adc" y="224.349299"/>
     <use x="691.794582" xlink:href="#m5f139a7adc" y="269.155117"/>
     <use x="692.887636" xlink:href="#m5f139a7adc" y="185.746755"/>
     <use x="693.94543" xlink:href="#m5f139a7adc" y="217.694466"/>
     <use x="695.038483" xlink:href="#m5f139a7adc" y="257.226295"/>
     <use x="696.131537" xlink:href="#m5f139a7adc" y="232.381714"/>
     <use x="697.154071" xlink:href="#m5f139a7adc" y="176.730994"/>
     <use x="698.247125" xlink:href="#m5f139a7adc" y="182.569724"/>
     <use x="699.304918" xlink:href="#m5f139a7adc" y="171.626663"/>
     <use x="700.397972" xlink:href="#m5f139a7adc" y="201.156164"/>
     <use x="701.455766" xlink:href="#m5f139a7adc" y="97.776"/>
     <use x="702.548819" xlink:href="#m5f139a7adc" y="120.157991"/>
     <use x="703.641873" xlink:href="#m5f139a7adc" y="185.84367"/>
     <use x="704.699667" xlink:href="#m5f139a7adc" y="225.165091"/>
     <use x="705.79272" xlink:href="#m5f139a7adc" y="211.92618"/>
     <use x="706.850514" xlink:href="#m5f139a7adc" y="252.28626"/>
     <use x="707.943568" xlink:href="#m5f139a7adc" y="224.843672"/>
     <use x="709.036621" xlink:href="#m5f139a7adc" y="238.63408"/>
     <use x="710.023896" xlink:href="#m5f139a7adc" y="183.034843"/>
     <use x="711.116949" xlink:href="#m5f139a7adc" y="320.379848"/>
     <use x="713.267797" xlink:href="#m5f139a7adc" y="108.757818"/>
     <use x="714.32559" xlink:href="#m5f139a7adc" y="276.622753"/>
     <use x="715.418644" xlink:href="#m5f139a7adc" y="213.325645"/>
     <use x="716.511697" xlink:href="#m5f139a7adc" y="252.663358"/>
     <use x="717.569491" xlink:href="#m5f139a7adc" y="213.435061"/>
     <use x="718.662545" xlink:href="#m5f139a7adc" y="219.015273"/>
     <use x="719.720339" xlink:href="#m5f139a7adc" y="231.410533"/>
     <use x="720.813392" xlink:href="#m5f139a7adc" y="181.054788"/>
     <use x="721.906446" xlink:href="#m5f139a7adc" y="216.693403"/>
     <use x="722.89372" xlink:href="#m5f139a7adc" y="245.526517"/>
     <use x="723.986774" xlink:href="#m5f139a7adc" y="224.314886"/>
     <use x="725.044567" xlink:href="#m5f139a7adc" y="180.13615"/>
     <use x="726.137621" xlink:href="#m5f139a7adc" y="140.308756"/>
     <use x="729.381522" xlink:href="#m5f139a7adc" y="152.066039"/>
     <use x="730.439316" xlink:href="#m5f139a7adc" y="178.049953"/>
     <use x="731.532369" xlink:href="#m5f139a7adc" y="217.948468"/>
     <use x="732.590163" xlink:href="#m5f139a7adc" y="184.004666"/>
     <use x="733.683217" xlink:href="#m5f139a7adc" y="255.286649"/>
     <use x="734.77627" xlink:href="#m5f139a7adc" y="181.400512"/>
     <use x="735.763545" xlink:href="#m5f139a7adc" y="181.610416"/>
     <use x="736.856598" xlink:href="#m5f139a7adc" y="233.950545"/>
     <use x="737.914392" xlink:href="#m5f139a7adc" y="266.73529"/>
     <use x="739.007446" xlink:href="#m5f139a7adc" y="233.950545"/>
     <use x="740.065239" xlink:href="#m5f139a7adc" y="293.513835"/>
     <use x="741.158293" xlink:href="#m5f139a7adc" y="341.964571"/>
     <use x="742.251346" xlink:href="#m5f139a7adc" y="214.821625"/>
     <use x="743.30914" xlink:href="#m5f139a7adc" y="266.924524"/>
     <use x="744.402194" xlink:href="#m5f139a7adc" y="222.051564"/>
     <use x="745.459988" xlink:href="#m5f139a7adc" y="134.128059"/>
     <use x="746.553041" xlink:href="#m5f139a7adc" y="303.292883"/>
     <use x="747.646095" xlink:href="#m5f139a7adc" y="280.623273"/>
     <use x="748.668629" xlink:href="#m5f139a7adc" y="253.762642"/>
     <use x="749.761682" xlink:href="#m5f139a7adc" y="245.898764"/>
     <use x="750.819476" xlink:href="#m5f139a7adc" y="286.320982"/>
     <use x="751.91253" xlink:href="#m5f139a7adc" y="329.963013"/>
     <use x="752.970324" xlink:href="#m5f139a7adc" y="322.850978"/>
     <use x="754.063377" xlink:href="#m5f139a7adc" y="326.406996"/>
     <use x="755.156431" xlink:href="#m5f139a7adc" y="289.553725"/>
     <use x="756.214225" xlink:href="#m5f139a7adc" y="279.405723"/>
     <use x="757.307278" xlink:href="#m5f139a7adc" y="237.506563"/>
     <use x="758.365072" xlink:href="#m5f139a7adc" y="191.81174"/>
     <use x="759.458126" xlink:href="#m5f139a7adc" y="301.514874"/>
     <use x="760.551179" xlink:href="#m5f139a7adc" y="315.961195"/>
     <use x="761.538453" xlink:href="#m5f139a7adc" y="249.19062"/>
     <use x="762.631507" xlink:href="#m5f139a7adc" y="202.390892"/>
     <use x="763.689301" xlink:href="#m5f139a7adc" y="224.7049"/>
     <use x="764.782354" xlink:href="#m5f139a7adc" y="236.084156"/>
     <use x="765.840148" xlink:href="#m5f139a7adc" y="306.256231"/>
     <use x="766.933202" xlink:href="#m5f139a7adc" y="226.838511"/>
     <use x="768.026255" xlink:href="#m5f139a7adc" y="258.929399"/>
     <use x="769.084049" xlink:href="#m5f139a7adc" y="181.49929"/>
     <use x="770.177103" xlink:href="#m5f139a7adc" y="235.890191"/>
     <use x="771.234896" xlink:href="#m5f139a7adc" y="175.590026"/>
     <use x="772.32795" xlink:href="#m5f139a7adc" y="265.192698"/>
     <use x="773.421004" xlink:href="#m5f139a7adc" y="260.620675"/>
     <use x="774.408278" xlink:href="#m5f139a7adc" y="136.296839"/>
     <use x="775.501331" xlink:href="#m5f139a7adc" y="258.620416"/>
     <use x="776.559125" xlink:href="#m5f139a7adc" y="280.502045"/>
     <use x="777.652179" xlink:href="#m5f139a7adc" y="279.670768"/>
     <use x="778.709973" xlink:href="#m5f139a7adc" y="374.574867"/>
     <use x="779.803026" xlink:href="#m5f139a7adc" y="348.389648"/>
     <use x="780.89608" xlink:href="#m5f139a7adc" y="300.560821"/>
     <use x="781.953874" xlink:href="#m5f139a7adc" y="255.591451"/>
     <use x="783.046927" xlink:href="#m5f139a7adc" y="235.017351"/>
     <use x="784.104721" xlink:href="#m5f139a7adc" y="247.401567"/>
     <use x="785.197775" xlink:href="#m5f139a7adc" y="315.364626"/>
     <use x="786.290828" xlink:href="#m5f139a7adc" y="251.112194"/>
     <use x="787.278102" xlink:href="#m5f139a7adc" y="254.358993"/>
     <use x="788.371156" xlink:href="#m5f139a7adc" y="234.345658"/>
     <use x="789.42895" xlink:href="#m5f139a7adc" y="305.293143"/>
     <use x="790.522003" xlink:href="#m5f139a7adc" y="320.717368"/>
     <use x="791.579797" xlink:href="#m5f139a7adc" y="238.92897"/>
     <use x="792.672851" xlink:href="#m5f139a7adc" y="285.868398"/>
     <use x="793.765904" xlink:href="#m5f139a7adc" y="243.930336"/>
     <use x="794.823698" xlink:href="#m5f139a7adc" y="249.032964"/>
     <use x="795.916752" xlink:href="#m5f139a7adc" y="262.620935"/>
     <use x="796.974545" xlink:href="#m5f139a7adc" y="319.828364"/>
    </g>
   </g>
   <g id="patch_3">
    <path d="M 115.2 554.4 
L 115.2 76.032 
" style="fill:none;stroke:#262626;stroke-linecap:square;stroke-linejoin:miter;stroke-width:1.25;"/>
   </g>
   <g id="patch_4">
    <path d="M 829.44 554.4 
L 829.44 76.032 
" style="fill:none;stroke:#262626;stroke-linecap:square;stroke-linejoin:miter;stroke-width:1.25;"/>
   </g>
   <g id="patch_5">
    <path d="M 115.2 554.4 
L 829.44 554.4 
" style="fill:none;stroke:#262626;stroke-linecap:square;stroke-linejoin:miter;stroke-width:1.25;"/>
   </g>
   <g id="patch_6">
    <path d="M 115.2 76.032 
L 829.44 76.032 
" style="fill:none;stroke:#262626;stroke-linecap:square;stroke-linejoin:miter;stroke-width:1.25;"/>
   </g>
   <g id="text_16">
    <!-- Relative number of number of bursty words per month -->
    <defs>
     <path d="M 44.390625 34.1875 
Q 47.5625 33.109375 50.5625 29.59375 
Q 53.5625 26.078125 56.59375 19.921875 
L 66.609375 0 
L 56 0 
L 46.6875 18.703125 
Q 43.0625 26.03125 39.671875 28.421875 
Q 36.28125 30.8125 30.421875 30.8125 
L 19.671875 30.8125 
L 19.671875 0 
L 9.8125 0 
L 9.8125 72.90625 
L 32.078125 72.90625 
Q 44.578125 72.90625 50.734375 67.671875 
Q 56.890625 62.453125 56.890625 51.90625 
Q 56.890625 45.015625 53.6875 40.46875 
Q 50.484375 35.9375 44.390625 34.1875 
z
M 19.671875 64.796875 
L 19.671875 38.921875 
L 32.078125 38.921875 
Q 39.203125 38.921875 42.84375 42.21875 
Q 46.484375 45.515625 46.484375 51.90625 
Q 46.484375 58.296875 42.84375 61.546875 
Q 39.203125 64.796875 32.078125 64.796875 
z
" id="DejaVuSans-52"/>
     <path d="M 56.203125 29.59375 
L 56.203125 25.203125 
L 14.890625 25.203125 
Q 15.484375 15.921875 20.484375 11.0625 
Q 25.484375 6.203125 34.421875 6.203125 
Q 39.59375 6.203125 44.453125 7.46875 
Q 49.3125 8.734375 54.109375 11.28125 
L 54.109375 2.78125 
Q 49.265625 0.734375 44.1875 -0.34375 
Q 39.109375 -1.421875 33.890625 -1.421875 
Q 20.796875 -1.421875 13.15625 6.1875 
Q 5.515625 13.8125 5.515625 26.8125 
Q 5.515625 40.234375 12.765625 48.109375 
Q 20.015625 56 32.328125 56 
Q 43.359375 56 49.78125 48.890625 
Q 56.203125 41.796875 56.203125 29.59375 
z
M 47.21875 32.234375 
Q 47.125 39.59375 43.09375 43.984375 
Q 39.0625 48.390625 32.421875 48.390625 
Q 24.90625 48.390625 20.390625 44.140625 
Q 15.875 39.890625 15.1875 32.171875 
z
" id="DejaVuSans-65"/>
     <path d="M 9.421875 75.984375 
L 18.40625 75.984375 
L 18.40625 0 
L 9.421875 0 
z
" id="DejaVuSans-6c"/>
     <path d="M 34.28125 27.484375 
Q 23.390625 27.484375 19.1875 25 
Q 14.984375 22.515625 14.984375 16.5 
Q 14.984375 11.71875 18.140625 8.90625 
Q 21.296875 6.109375 26.703125 6.109375 
Q 34.1875 6.109375 38.703125 11.40625 
Q 43.21875 16.703125 43.21875 25.484375 
L 43.21875 27.484375 
z
M 52.203125 31.203125 
L 52.203125 0 
L 43.21875 0 
L 43.21875 8.296875 
Q 40.140625 3.328125 35.546875 0.953125 
Q 30.953125 -1.421875 24.3125 -1.421875 
Q 15.921875 -1.421875 10.953125 3.296875 
Q 6 8.015625 6 15.921875 
Q 6 25.140625 12.171875 29.828125 
Q 18.359375 34.515625 30.609375 34.515625 
L 43.21875 34.515625 
L 43.21875 35.40625 
Q 43.21875 41.609375 39.140625 45 
Q 35.0625 48.390625 27.6875 48.390625 
Q 23 48.390625 18.546875 47.265625 
Q 14.109375 46.140625 10.015625 43.890625 
L 10.015625 52.203125 
Q 14.9375 54.109375 19.578125 55.046875 
Q 24.21875 56 28.609375 56 
Q 40.484375 56 46.34375 49.84375 
Q 52.203125 43.703125 52.203125 31.203125 
z
" id="DejaVuSans-61"/>
     <path d="M 18.3125 70.21875 
L 18.3125 54.6875 
L 36.8125 54.6875 
L 36.8125 47.703125 
L 18.3125 47.703125 
L 18.3125 18.015625 
Q 18.3125 11.328125 20.140625 9.421875 
Q 21.96875 7.515625 27.59375 7.515625 
L 36.8125 7.515625 
L 36.8125 0 
L 27.59375 0 
Q 17.1875 0 13.234375 3.875 
Q 9.28125 7.765625 9.28125 18.015625 
L 9.28125 47.703125 
L 2.6875 47.703125 
L 2.6875 54.6875 
L 9.28125 54.6875 
L 9.28125 70.21875 
z
" id="DejaVuSans-74"/>
     <path d="M 9.421875 54.6875 
L 18.40625 54.6875 
L 18.40625 0 
L 9.421875 0 
z
M 9.421875 75.984375 
L 18.40625 75.984375 
L 18.40625 64.59375 
L 9.421875 64.59375 
z
" id="DejaVuSans-69"/>
     <path d="M 2.984375 54.6875 
L 12.5 54.6875 
L 29.59375 8.796875 
L 46.6875 54.6875 
L 56.203125 54.6875 
L 35.6875 0 
L 23.484375 0 
z
" id="DejaVuSans-76"/>
     <path id="DejaVuSans-20"/>
     <path d="M 54.890625 33.015625 
L 54.890625 0 
L 45.90625 0 
L 45.90625 32.71875 
Q 45.90625 40.484375 42.875 44.328125 
Q 39.84375 48.1875 33.796875 48.1875 
Q 26.515625 48.1875 22.3125 43.546875 
Q 18.109375 38.921875 18.109375 30.90625 
L 18.109375 0 
L 9.078125 0 
L 9.078125 54.6875 
L 18.109375 54.6875 
L 18.109375 46.1875 
Q 21.34375 51.125 25.703125 53.5625 
Q 30.078125 56 35.796875 56 
Q 45.21875 56 50.046875 50.171875 
Q 54.890625 44.34375 54.890625 33.015625 
z
" id="DejaVuSans-6e"/>
     <path d="M 8.5 21.578125 
L 8.5 54.6875 
L 17.484375 54.6875 
L 17.484375 21.921875 
Q 17.484375 14.15625 20.5 10.265625 
Q 23.53125 6.390625 29.59375 6.390625 
Q 36.859375 6.390625 41.078125 11.03125 
Q 45.3125 15.671875 45.3125 23.6875 
L 45.3125 54.6875 
L 54.296875 54.6875 
L 54.296875 0 
L 45.3125 0 
L 45.3125 8.40625 
Q 42.046875 3.421875 37.71875 1 
Q 33.40625 -1.421875 27.6875 -1.421875 
Q 18.265625 -1.421875 13.375 4.4375 
Q 8.5 10.296875 8.5 21.578125 
z
M 31.109375 56 
z
" id="DejaVuSans-75"/>
     <path d="M 52 44.1875 
Q 55.375 50.25 60.0625 53.125 
Q 64.75 56 71.09375 56 
Q 79.640625 56 84.28125 50.015625 
Q 88.921875 44.046875 88.921875 33.015625 
L 88.921875 0 
L 79.890625 0 
L 79.890625 32.71875 
Q 79.890625 40.578125 77.09375 44.375 
Q 74.3125 48.1875 68.609375 48.1875 
Q 61.625 48.1875 57.5625 43.546875 
Q 53.515625 38.921875 53.515625 30.90625 
L 53.515625 0 
L 44.484375 0 
L 44.484375 32.71875 
Q 44.484375 40.625 41.703125 44.40625 
Q 38.921875 48.1875 33.109375 48.1875 
Q 26.21875 48.1875 22.15625 43.53125 
Q 18.109375 38.875 18.109375 30.90625 
L 18.109375 0 
L 9.078125 0 
L 9.078125 54.6875 
L 18.109375 54.6875 
L 18.109375 46.1875 
Q 21.1875 51.21875 25.484375 53.609375 
Q 29.78125 56 35.6875 56 
Q 41.65625 56 45.828125 52.96875 
Q 50 49.953125 52 44.1875 
z
" id="DejaVuSans-6d"/>
     <path d="M 48.6875 27.296875 
Q 48.6875 37.203125 44.609375 42.84375 
Q 40.53125 48.484375 33.40625 48.484375 
Q 26.265625 48.484375 22.1875 42.84375 
Q 18.109375 37.203125 18.109375 27.296875 
Q 18.109375 17.390625 22.1875 11.75 
Q 26.265625 6.109375 33.40625 6.109375 
Q 40.53125 6.109375 44.609375 11.75 
Q 48.6875 17.390625 48.6875 27.296875 
z
M 18.109375 46.390625 
Q 20.953125 51.265625 25.265625 53.625 
Q 29.59375 56 35.59375 56 
Q 45.5625 56 51.78125 48.09375 
Q 58.015625 40.1875 58.015625 27.296875 
Q 58.015625 14.40625 51.78125 6.484375 
Q 45.5625 -1.421875 35.59375 -1.421875 
Q 29.59375 -1.421875 25.265625 0.953125 
Q 20.953125 3.328125 18.109375 8.203125 
L 18.109375 0 
L 9.078125 0 
L 9.078125 75.984375 
L 18.109375 75.984375 
z
" id="DejaVuSans-62"/>
     <path d="M 41.109375 46.296875 
Q 39.59375 47.171875 37.8125 47.578125 
Q 36.03125 48 33.890625 48 
Q 26.265625 48 22.1875 43.046875 
Q 18.109375 38.09375 18.109375 28.8125 
L 18.109375 0 
L 9.078125 0 
L 9.078125 54.6875 
L 18.109375 54.6875 
L 18.109375 46.1875 
Q 20.953125 51.171875 25.484375 53.578125 
Q 30.03125 56 36.53125 56 
Q 37.453125 56 38.578125 55.875 
Q 39.703125 55.765625 41.0625 55.515625 
z
" id="DejaVuSans-72"/>
     <path d="M 30.609375 48.390625 
Q 23.390625 48.390625 19.1875 42.75 
Q 14.984375 37.109375 14.984375 27.296875 
Q 14.984375 17.484375 19.15625 11.84375 
Q 23.34375 6.203125 30.609375 6.203125 
Q 37.796875 6.203125 41.984375 11.859375 
Q 46.1875 17.53125 46.1875 27.296875 
Q 46.1875 37.015625 41.984375 42.703125 
Q 37.796875 48.390625 30.609375 48.390625 
z
M 30.609375 56 
Q 42.328125 56 49.015625 48.375 
Q 55.71875 40.765625 55.71875 27.296875 
Q 55.71875 13.875 49.015625 6.21875 
Q 42.328125 -1.421875 30.609375 -1.421875 
Q 18.84375 -1.421875 12.171875 6.21875 
Q 5.515625 13.875 5.515625 27.296875 
Q 5.515625 40.765625 12.171875 48.375 
Q 18.84375 56 30.609375 56 
z
" id="DejaVuSans-6f"/>
     <path d="M 37.109375 75.984375 
L 37.109375 68.5 
L 28.515625 68.5 
Q 23.6875 68.5 21.796875 66.546875 
Q 19.921875 64.59375 19.921875 59.515625 
L 19.921875 54.6875 
L 34.71875 54.6875 
L 34.71875 47.703125 
L 19.921875 47.703125 
L 19.921875 0 
L 10.890625 0 
L 10.890625 47.703125 
L 2.296875 47.703125 
L 2.296875 54.6875 
L 10.890625 54.6875 
L 10.890625 58.5 
Q 10.890625 67.625 15.140625 71.796875 
Q 19.390625 75.984375 28.609375 75.984375 
z
" id="DejaVuSans-66"/>
     <path d="M 44.28125 53.078125 
L 44.28125 44.578125 
Q 40.484375 46.53125 36.375 47.5 
Q 32.28125 48.484375 27.875 48.484375 
Q 21.1875 48.484375 17.84375 46.4375 
Q 14.5 44.390625 14.5 40.28125 
Q 14.5 37.15625 16.890625 35.375 
Q 19.28125 33.59375 26.515625 31.984375 
L 29.59375 31.296875 
Q 39.15625 29.25 43.1875 25.515625 
Q 47.21875 21.78125 47.21875 15.09375 
Q 47.21875 7.46875 41.1875 3.015625 
Q 35.15625 -1.421875 24.609375 -1.421875 
Q 20.21875 -1.421875 15.453125 -0.5625 
Q 10.6875 0.296875 5.421875 2 
L 5.421875 11.28125 
Q 10.40625 8.6875 15.234375 7.390625 
Q 20.0625 6.109375 24.8125 6.109375 
Q 31.15625 6.109375 34.5625 8.28125 
Q 37.984375 10.453125 37.984375 14.40625 
Q 37.984375 18.0625 35.515625 20.015625 
Q 33.0625 21.96875 24.703125 23.78125 
L 21.578125 24.515625 
Q 13.234375 26.265625 9.515625 29.90625 
Q 5.8125 33.546875 5.8125 39.890625 
Q 5.8125 47.609375 11.28125 51.796875 
Q 16.75 56 26.8125 56 
Q 31.78125 56 36.171875 55.265625 
Q 40.578125 54.546875 44.28125 53.078125 
z
" id="DejaVuSans-73"/>
     <path d="M 32.171875 -5.078125 
Q 28.375 -14.84375 24.75 -17.8125 
Q 21.140625 -20.796875 15.09375 -20.796875 
L 7.90625 -20.796875 
L 7.90625 -13.28125 
L 13.1875 -13.28125 
Q 16.890625 -13.28125 18.9375 -11.515625 
Q 21 -9.765625 23.484375 -3.21875 
L 25.09375 0.875 
L 2.984375 54.6875 
L 12.5 54.6875 
L 29.59375 11.921875 
L 46.6875 54.6875 
L 56.203125 54.6875 
z
" id="DejaVuSans-79"/>
     <path d="M 4.203125 54.6875 
L 13.1875 54.6875 
L 24.421875 12.015625 
L 35.59375 54.6875 
L 46.1875 54.6875 
L 57.421875 12.015625 
L 68.609375 54.6875 
L 77.59375 54.6875 
L 63.28125 0 
L 52.6875 0 
L 40.921875 44.828125 
L 29.109375 0 
L 18.5 0 
z
" id="DejaVuSans-77"/>
     <path d="M 45.40625 46.390625 
L 45.40625 75.984375 
L 54.390625 75.984375 
L 54.390625 0 
L 45.40625 0 
L 45.40625 8.203125 
Q 42.578125 3.328125 38.25 0.953125 
Q 33.9375 -1.421875 27.875 -1.421875 
Q 17.96875 -1.421875 11.734375 6.484375 
Q 5.515625 14.40625 5.515625 27.296875 
Q 5.515625 40.1875 11.734375 48.09375 
Q 17.96875 56 27.875 56 
Q 33.9375 56 38.25 53.625 
Q 42.578125 51.265625 45.40625 46.390625 
z
M 14.796875 27.296875 
Q 14.796875 17.390625 18.875 11.75 
Q 22.953125 6.109375 30.078125 6.109375 
Q 37.203125 6.109375 41.296875 11.75 
Q 45.40625 17.390625 45.40625 27.296875 
Q 45.40625 37.203125 41.296875 42.84375 
Q 37.203125 48.484375 30.078125 48.484375 
Q 22.953125 48.484375 18.875 42.84375 
Q 14.796875 37.203125 14.796875 27.296875 
z
" id="DejaVuSans-64"/>
     <path d="M 18.109375 8.203125 
L 18.109375 -20.796875 
L 9.078125 -20.796875 
L 9.078125 54.6875 
L 18.109375 54.6875 
L 18.109375 46.390625 
Q 20.953125 51.265625 25.265625 53.625 
Q 29.59375 56 35.59375 56 
Q 45.5625 56 51.78125 48.09375 
Q 58.015625 40.1875 58.015625 27.296875 
Q 58.015625 14.40625 51.78125 6.484375 
Q 45.5625 -1.421875 35.59375 -1.421875 
Q 29.59375 -1.421875 25.265625 0.953125 
Q 20.953125 3.328125 18.109375 8.203125 
z
M 48.6875 27.296875 
Q 48.6875 37.203125 44.609375 42.84375 
Q 40.53125 48.484375 33.40625 48.484375 
Q 26.265625 48.484375 22.1875 42.84375 
Q 18.109375 37.203125 18.109375 27.296875 
Q 18.109375 17.390625 22.1875 11.75 
Q 26.265625 6.109375 33.40625 6.109375 
Q 40.53125 6.109375 44.609375 11.75 
Q 48.6875 17.390625 48.6875 27.296875 
z
" id="DejaVuSans-70"/>
     <path d="M 54.890625 33.015625 
L 54.890625 0 
L 45.90625 0 
L 45.90625 32.71875 
Q 45.90625 40.484375 42.875 44.328125 
Q 39.84375 48.1875 33.796875 48.1875 
Q 26.515625 48.1875 22.3125 43.546875 
Q 18.109375 38.921875 18.109375 30.90625 
L 18.109375 0 
L 9.078125 0 
L 9.078125 75.984375 
L 18.109375 75.984375 
L 18.109375 46.1875 
Q 21.34375 51.125 25.703125 53.5625 
Q 30.078125 56 35.796875 56 
Q 45.21875 56 50.046875 50.171875 
Q 54.890625 44.34375 54.890625 33.015625 
z
" id="DejaVuSans-68"/>
    </defs>
    <g style="fill:#262626;" transform="translate(208.8885 70.032)scale(0.192 -0.192)">
     <use xlink:href="#DejaVuSans-52"/>
     <use x="69.419922" xlink:href="#DejaVuSans-65"/>
     <use x="130.943359" xlink:href="#DejaVuSans-6c"/>
     <use x="158.726562" xlink:href="#DejaVuSans-61"/>
     <use x="220.005859" xlink:href="#DejaVuSans-74"/>
     <use x="259.214844" xlink:href="#DejaVuSans-69"/>
     <use x="286.998047" xlink:href="#DejaVuSans-76"/>
     <use x="346.177734" xlink:href="#DejaVuSans-65"/>
     <use x="407.701172" xlink:href="#DejaVuSans-20"/>
     <use x="439.488281" xlink:href="#DejaVuSans-6e"/>
     <use x="502.867188" xlink:href="#DejaVuSans-75"/>
     <use x="566.246094" xlink:href="#DejaVuSans-6d"/>
     <use x="663.658203" xlink:href="#DejaVuSans-62"/>
     <use x="727.134766" xlink:href="#DejaVuSans-65"/>
     <use x="788.658203" xlink:href="#DejaVuSans-72"/>
     <use x="829.771484" xlink:href="#DejaVuSans-20"/>
     <use x="861.558594" xlink:href="#DejaVuSans-6f"/>
     <use x="922.740234" xlink:href="#DejaVuSans-66"/>
     <use x="957.945312" xlink:href="#DejaVuSans-20"/>
     <use x="989.732422" xlink:href="#DejaVuSans-6e"/>
     <use x="1053.111328" xlink:href="#DejaVuSans-75"/>
     <use x="1116.490234" xlink:href="#DejaVuSans-6d"/>
     <use x="1213.902344" xlink:href="#DejaVuSans-62"/>
     <use x="1277.378906" xlink:href="#DejaVuSans-65"/>
     <use x="1338.902344" xlink:href="#DejaVuSans-72"/>
     <use x="1380.015625" xlink:href="#DejaVuSans-20"/>
     <use x="1411.802734" xlink:href="#DejaVuSans-6f"/>
     <use x="1472.984375" xlink:href="#DejaVuSans-66"/>
     <use x="1508.189453" xlink:href="#DejaVuSans-20"/>
     <use x="1539.976562" xlink:href="#DejaVuSans-62"/>
     <use x="1603.453125" xlink:href="#DejaVuSans-75"/>
     <use x="1666.832031" xlink:href="#DejaVuSans-72"/>
     <use x="1707.945312" xlink:href="#DejaVuSans-73"/>
     <use x="1760.044922" xlink:href="#DejaVuSans-74"/>
     <use x="1799.253906" xlink:href="#DejaVuSans-79"/>
     <use x="1858.433594" xlink:href="#DejaVuSans-20"/>
     <use x="1890.220703" xlink:href="#DejaVuSans-77"/>
     <use x="1972.007812" xlink:href="#DejaVuSans-6f"/>
     <use x="2033.189453" xlink:href="#DejaVuSans-72"/>
     <use x="2074.287109" xlink:href="#DejaVuSans-64"/>
     <use x="2137.763672" xlink:href="#DejaVuSans-73"/>
     <use x="2189.863281" xlink:href="#DejaVuSans-20"/>
     <use x="2221.650391" xlink:href="#DejaVuSans-70"/>
     <use x="2285.126953" xlink:href="#DejaVuSans-65"/>
     <use x="2346.650391" xlink:href="#DejaVuSans-72"/>
     <use x="2387.763672" xlink:href="#DejaVuSans-20"/>
     <use x="2419.550781" xlink:href="#DejaVuSans-6d"/>
     <use x="2516.962891" xlink:href="#DejaVuSans-6f"/>
     <use x="2578.144531" xlink:href="#DejaVuSans-6e"/>
     <use x="2641.523438" xlink:href="#DejaVuSans-74"/>
     <use x="2680.732422" xlink:href="#DejaVuSans-68"/>
    </g>
   </g>
  </g>
 </g>
 <defs>
  <clipPath id="pca7e094068">
   <rect height="478.368" width="714.24" x="115.2" y="76.032"/>
  </clipPath>
 </defs>
</svg>
